<?xml version="1.0" encoding="UTF-8" standalone="no"?>
<!DOCTYPE svg PUBLIC "-//W3C//DTD SVG 1.1//EN" "http://www.w3.org/Graphics/SVG/1.1/DTD/svg11.dtd">
<svg width="100%" height="100%" viewBox="0 0 88 12" version="1.1" xmlns="http://www.w3.org/2000/svg" xmlns:xlink="http://www.w3.org/1999/xlink" xml:space="preserve" xmlns:serif="http://www.serif.com/" style="fill-rule:evenodd;clip-rule:evenodd;stroke-linecap:round;stroke-linejoin:round;stroke-miterlimit:1.5;">
    <g transform="matrix(1,0,0,1,-477.353,-225.966)">
        <g transform="matrix(1,0,0,1,-2.28836,-90.8927)">
            <g id="Short">
                <g>
                    <g transform="matrix(0.2814,0,0,0.2814,341.758,229.698)">
                        <g transform="matrix(36,0,0,36,803.489,343.65)">
                        </g>
                        <text x="539.573px" y="343.65px" style="font-family:'Merriweather-Bold', 'Merriweather';font-weight:700;font-size:36px;">MealPrepMate</text>
                    </g>
                    <g id="Logo" transform="matrix(0.22836,0,0,0.22836,396.934,246.636)">
                        <g id="Background" transform="matrix(0.531667,0,0,4.5196,108.686,-1124.22)">
                            <path d="M571.304,318.697L571.304,325.748C571.304,326.542 565.822,327.187 559.071,327.187L493.052,327.187C486.301,327.187 480.819,326.542 480.819,325.748L480.819,318.697C480.819,317.903 486.301,317.258 493.052,317.258L559.071,317.258C565.822,317.258 571.304,317.903 571.304,318.697Z" style="stroke:black;stroke-width:1.33px;"/>
                        </g>
                        <g transform="matrix(1,0,0,1,216.414,267.827)">
                            <g transform="matrix(0.50505,0,0,0.50505,147.114,39.1813)">
                                <path d="M42.949,11.516C42.547,11.629 42.203,11.895 42,12.262C41.793,12.629 41.746,13.063 41.863,13.465C41.98,13.868 42.254,14.203 42.625,14.403C42.992,14.602 43.426,14.645 43.828,14.52C66.453,6.68 91.375,24.665 90.961,48.661C91.316,72.122 67.613,89.966 45.188,83.239C44.364,83.016 43.516,83.497 43.278,84.317C43.043,85.137 43.512,85.993 44.328,86.243C111.078,99.657 108.91,-4.319 42.95,11.516L42.949,11.516Z" style="fill:white;fill-rule:nonzero;"/>
                            </g>
                            <g transform="matrix(0.50505,0,0,0.50505,147.114,39.1813)">
                                <path d="M55.023,72.457C86.554,71.156 86.578,26.184 55.023,24.879C53.046,24.953 44.714,25.344 45.843,28.383C45.988,28.774 46.281,29.086 46.66,29.258C47.039,29.43 47.468,29.441 47.855,29.297C60.941,24.16 75.949,34.566 75.679,48.66C75.941,63.887 58.831,74.254 45.484,66.996C44.718,66.594 43.777,66.89 43.375,67.652C41.695,70.949 52.82,72.617 55.023,72.457L55.023,72.457Z" style="fill:white;fill-rule:nonzero;"/>
                            </g>
                            <g transform="matrix(0.50505,0,0,0.50505,147.114,39.1813)">
                                <path d="M70.516,44.09C73.207,44.008 71.961,39.539 69.633,40.524C67.946,41.227 68.852,44.106 70.516,44.09Z" style="fill:white;fill-rule:nonzero;"/>
                            </g>
                            <g transform="matrix(0.50505,0,0,0.50505,147.114,39.1813)">
                                <path d="M55.02,30.438C54.168,30.454 53.485,31.149 53.485,32.001C53.485,32.852 54.168,33.547 55.02,33.563C59.778,33.547 64.262,35.794 67.102,39.614C67.622,40.297 68.598,40.438 69.286,39.918C69.977,39.403 70.118,38.426 69.602,37.735C66.172,33.125 60.762,30.418 55.02,30.438L55.02,30.438Z" style="fill:white;fill-rule:nonzero;"/>
                            </g>
                            <g transform="matrix(0.50505,0,0,0.50505,147.114,39.1813)">
                                <path d="M24.801,15.715L24.801,36.961C24.797,37.777 24.141,38.438 23.328,38.438C20.789,38.438 18.731,40.496 18.727,43.035L18.727,85.531C18.727,86.344 18.067,87 17.254,87C16.445,87 15.785,86.344 15.781,85.531L15.781,43.035C15.777,40.496 13.723,38.441 11.184,38.438C10.371,38.438 9.711,37.777 9.711,36.965L9.711,15.715C9.695,14.863 9,14.184 8.148,14.184C7.297,14.184 6.601,14.863 6.586,15.715L6.586,36.961C6.59,39.5 8.644,41.559 11.184,41.562C11.996,41.562 12.656,42.223 12.656,43.035L12.656,85.531C12.664,88.066 14.719,90.121 17.254,90.121C19.789,90.121 21.848,88.066 21.852,85.531L21.852,43.035C21.856,42.223 22.512,41.562 23.328,41.562C25.863,41.559 27.922,39.5 27.926,36.965L27.926,15.715C27.91,14.863 27.215,14.176 26.363,14.176C25.508,14.176 24.813,14.863 24.801,15.715Z" style="fill:white;fill-rule:nonzero;"/>
                            </g>
                            <g transform="matrix(0.50505,0,0,0.50505,147.114,39.1813)">
                                <path d="M14.219,35.492C14.633,35.492 15.032,35.324 15.324,35.031C15.617,34.738 15.782,34.344 15.782,33.929L15.782,15.714C15.782,14.851 15.082,14.152 14.219,14.152C13.356,14.152 12.657,14.851 12.657,15.714L12.657,33.929C12.657,34.344 12.821,34.738 13.114,35.031C13.407,35.324 13.805,35.492 14.219,35.492L14.219,35.492Z" style="fill:white;fill-rule:nonzero;"/>
                            </g>
                            <g transform="matrix(0.50505,0,0,0.50505,147.114,39.1813)">
                                <path d="M20.289,35.492C20.703,35.492 21.102,35.324 21.395,35.031C21.688,34.738 21.852,34.344 21.852,33.929L21.852,15.714C21.852,14.851 21.152,14.152 20.289,14.152C19.426,14.152 18.727,14.851 18.727,15.714L18.727,33.929C18.727,34.344 18.891,34.738 19.184,35.031C19.477,35.324 19.875,35.492 20.289,35.492L20.289,35.492Z" style="fill:white;fill-rule:nonzero;"/>
                            </g>
                            <g transform="matrix(0.50505,0,0,0.50505,147.114,39.1813)">
                                <path d="M45.594,43.211L40.524,17.848C39.434,12.426 30.868,13.168 30.871,18.75L30.871,85.531C30.875,88.067 32.934,90.121 35.469,90.121C38.004,90.121 40.063,88.066 40.067,85.531L40.067,60.004C40.067,59.067 40.286,58.145 40.704,57.309L44.809,49.098C45.715,47.278 45.993,45.208 45.594,43.211L45.594,43.211ZM42.012,47.703C40.649,50.852 36.676,56.934 36.942,60.008L36.942,85.531C36.922,86.332 36.27,86.973 35.469,86.973C34.668,86.973 34.012,86.332 33.996,85.531L33.996,18.75C33.957,16.895 37.133,16.707 37.461,18.461L42.531,43.824C42.793,45.137 42.61,46.5 42.012,47.699L42.012,47.703Z" style="fill:white;fill-rule:nonzero;"/>
                            </g>
                        </g>
                    </g>
                </g>
            </g>
        </g>
    </g>
</svg>
