<svg viewBox="0 0 12 12" xmlns="http://www.w3.org/2000/svg" xml:space="preserve" style="fill-rule:evenodd;clip-rule:evenodd;stroke-linecap:round;stroke-linejoin:round;stroke-miterlimit:1.5"><path d="M571.304 318.697v7.051c0 .794-5.851 1.439-13.058 1.439h-64.369c-7.207 0-13.058-.645-13.058-1.439v-7.051c0-.794 5.851-1.439 13.058-1.439h64.369c7.207 0 13.058.645 13.058 1.439Z" style="fill:#0f172a;stroke:#0f172a;stroke-width:1.31px" transform="matrix(.1163 0 0 1.05537 -55.431 -334.334)"/><path d="m533.757 188.038-.864-.104v-.496h2.496l.952 3.44.224.936.192-.936.944-3.44h2.472v.496l-.872.104.64 4.776.648.088v.48h-2.552v-.48l.704-.08-.352-3.504-.152-1.464-.296 1.232-1.16 4.048h-.848l-1.184-3.84-.408-1.44-.12 1.464-.304 3.504.808.08v.48h-2.224v-.48l.672-.08.584-4.784Z" style="fill:#fff;fill-rule:nonzero" transform="translate(-530.793 -184.68)"/></svg>