<?xml version="1.0" encoding="UTF-8" standalone="no"?>
<!DOCTYPE svg PUBLIC "-//W3C//DTD SVG 1.1//EN" "http://www.w3.org/Graphics/SVG/1.1/DTD/svg11.dtd">
<svg width="100%" height="100%" viewBox="0 0 24 24" version="1.1" xmlns="http://www.w3.org/2000/svg" xmlns:xlink="http://www.w3.org/1999/xlink" xml:space="preserve" xmlns:serif="http://www.serif.com/" style="fill-rule:evenodd;clip-rule:evenodd;stroke-linejoin:round;stroke-miterlimit:2;">
    <rect x="0" y="0" width="24" height="24" style="fill:rgb(6,12,14);"/>
    <g transform="matrix(1.15566,0,0,1.15566,-1.86787,-1.86787)">
        <g transform="matrix(0.0551632,0,-3.63086e-05,0.0537314,-13.5784,-6.22799)">
            <path d="M451.852,425.537C451.852,465.074 432.323,484.89 393.267,484.986C354.306,484.986 334.825,465.17 334.825,425.537L334.825,252.804C334.825,213.267 354.306,193.499 393.267,193.499C432.323,193.499 451.852,213.267 451.852,252.804L451.852,290.805L411.116,290.805L411.116,252.804C411.116,240.137 405.214,233.755 393.41,233.659L393.123,233.659C381.415,233.659 375.561,240.041 375.561,252.804L375.561,425.537C375.561,438.3 381.463,444.682 393.267,444.682C405.166,444.682 411.116,438.3 411.116,425.537L411.116,387.536L451.852,387.536L451.852,425.537Z" style="fill:rgb(206,207,208);fill-rule:nonzero;"/>
        </g>
        <g transform="matrix(-0.0551632,0,-3.63086e-05,0.0537314,19.989,19.5835)">
            <path d="M132.861,-54.843C132.861,-15.306 113.332,4.51 74.275,4.606C35.314,4.606 15.834,-15.21 15.834,-54.843L15.834,-227.576C15.834,-267.113 35.314,-286.881 74.275,-286.881C113.332,-286.881 132.861,-267.113 132.861,-227.576L132.861,-189.575L92.124,-189.575L92.124,-227.576C92.124,-240.243 86.223,-246.625 74.419,-246.721L74.131,-246.721C62.424,-246.721 56.57,-240.339 56.57,-227.576L56.57,-54.843C56.57,-42.08 62.472,-35.698 74.275,-35.698C86.175,-35.698 92.124,-42.08 92.124,-54.843L92.124,-121.057L74.419,-121.057L74.419,-161.362L132.861,-161.362L132.861,-54.843Z" style="fill:rgb(206,207,208);fill-rule:nonzero;"/>
        </g>
    </g>
</svg>
